<mxfile host="app.diagrams.net" modified="2023-03-08T09:01:51.459Z" agent="5.0 (Windows NT 10.0; Win64; x64) AppleWebKit/537.36 (KHTML, like Gecko) Chrome/110.0.0.0 Safari/537.36 Edg/110.0.1587.63" etag="a2mrhBD6ZkQsxbMz5guL" version="21.0.2" type="github">
  <diagram name="第 1 页" id="VcoD4T0_m4YoaT1a4VzF">
    <mxGraphModel dx="627" dy="746" grid="1" gridSize="10" guides="1" tooltips="1" connect="1" arrows="1" fold="1" page="1" pageScale="1" pageWidth="827" pageHeight="1169" math="0" shadow="0">
      <root>
        <mxCell id="0" />
        <mxCell id="1" parent="0" />
        <mxCell id="nJlL0mGx0uaL6HCrBvk4-8" style="edgeStyle=orthogonalEdgeStyle;rounded=0;orthogonalLoop=1;jettySize=auto;html=1;exitX=1;exitY=0.5;exitDx=0;exitDy=0;entryX=0.5;entryY=0;entryDx=0;entryDy=0;" edge="1" parent="1" source="nJlL0mGx0uaL6HCrBvk4-1" target="nJlL0mGx0uaL6HCrBvk4-6">
          <mxGeometry relative="1" as="geometry" />
        </mxCell>
        <mxCell id="nJlL0mGx0uaL6HCrBvk4-1" value="生态健康&lt;br&gt;关键指标" style="rounded=0;whiteSpace=wrap;html=1;fillColor=#d5e8d4;strokeColor=#82b366;" vertex="1" parent="1">
          <mxGeometry x="60" y="140" width="90" height="40" as="geometry" />
        </mxCell>
        <mxCell id="nJlL0mGx0uaL6HCrBvk4-2" value="生态环境问题输入" style="rounded=0;whiteSpace=wrap;html=1;fillColor=#d5e8d4;strokeColor=#82b366;" vertex="1" parent="1">
          <mxGeometry x="67" y="230" width="110" height="40" as="geometry" />
        </mxCell>
        <mxCell id="nJlL0mGx0uaL6HCrBvk4-5" style="edgeStyle=orthogonalEdgeStyle;rounded=0;orthogonalLoop=1;jettySize=auto;html=1;exitX=1;exitY=0.5;exitDx=0;exitDy=0;entryX=0;entryY=0.5;entryDx=0;entryDy=0;" edge="1" parent="1" source="nJlL0mGx0uaL6HCrBvk4-3" target="nJlL0mGx0uaL6HCrBvk4-4">
          <mxGeometry relative="1" as="geometry" />
        </mxCell>
        <mxCell id="nJlL0mGx0uaL6HCrBvk4-3" value="逻辑规则挖掘" style="rounded=0;whiteSpace=wrap;html=1;fillColor=#d5e8d4;strokeColor=#82b366;" vertex="1" parent="1">
          <mxGeometry x="70" y="330" width="90" height="40" as="geometry" />
        </mxCell>
        <mxCell id="nJlL0mGx0uaL6HCrBvk4-4" value="潜在规则" style="rounded=0;whiteSpace=wrap;html=1;fillColor=#d5e8d4;strokeColor=#82b366;" vertex="1" parent="1">
          <mxGeometry x="210" y="330" width="90" height="40" as="geometry" />
        </mxCell>
        <mxCell id="nJlL0mGx0uaL6HCrBvk4-6" value="" style="rounded=1;whiteSpace=wrap;html=1;" vertex="1" parent="1">
          <mxGeometry x="220" y="180" width="120" height="60" as="geometry" />
        </mxCell>
        <mxCell id="nJlL0mGx0uaL6HCrBvk4-7" value="异常溯源&lt;br&gt;预警评估" style="rounded=0;whiteSpace=wrap;html=1;fillColor=#d5e8d4;strokeColor=#82b366;" vertex="1" parent="1">
          <mxGeometry x="530" y="240" width="80" height="50" as="geometry" />
        </mxCell>
        <mxCell id="nJlL0mGx0uaL6HCrBvk4-9" value="时空数据挖掘" style="text;html=1;strokeColor=none;fillColor=none;align=center;verticalAlign=middle;whiteSpace=wrap;rounded=0;" vertex="1" parent="1">
          <mxGeometry x="177" y="131" width="80" height="30" as="geometry" />
        </mxCell>
      </root>
    </mxGraphModel>
  </diagram>
</mxfile>
